ffmpeg started on 2025-05-12 at 15:31:42
Report written to "D:\Convert\FFMetrics\reports\psnr_report-6.txt"
Log level: 32
Command line:
ffmpeg -hide_banner -nostdin -i "G:\\\xc0\xed\xe8\xec\xe5\\\xce\xed\xe3\xee\xe8\xed\xe3\xe8\\!_35_\xcb\xe5\xf2\xee_2024\\DreamCast\\\xcb\xfe\xe1\xee\xe2\xfc \xed\xe5\xe4\xe5\xeb\xe8\xec\xe0 \xec\xe5\xe6\xe4\xf3 \xe1\xeb\xe8\xe7\xed\xe5\xf6\xe0\xec\xe8\\[DC] Koi wa Futago de Warikirenai - 01_Telegram_HEVC.mkv" -i "G:\\\xc0\xed\xe8\xec\xe5\\\xce\xed\xe3\xee\xe8\xed\xe3\xe8\\!_35_\xcb\xe5\xf2\xee_2024\\DreamCast\\\xcb\xfe\xe1\xee\xe2\xfc \xed\xe5\xe4\xe5\xeb\xe8\xec\xe0 \xec\xe5\xe6\xe4\xf3 \xe1\xeb\xe8\xe7\xed\xe5\xf6\xe0\xec\xe8\\[DC] Koi wa Futago de Warikirenai - 01_Telegram.mp4" -lavfi "[0:v]settb=AVTB,setpts=PTS-STARTPTS,format=pix_fmts=yuv420p10,fps=24000/1001,scale=1920:1080:flags=bicubic[main];[1:v]settb=AVTB,setpts=PTS-STARTPTS,format=pix_fmts=yuv420p,fps=24000/1001,scale=1920:1080:flags=bicubic[ref];[main][ref]psnr=eof_action=endall:stats_file='D\\:/Convert/FFMetrics/logs/psnr_logfile-6.txt'" -f null -
Input #0, matroska,webm, from 'G:\Аниме\Онгоинги\!_35_Лето_2024\DreamCast\Любовь неделима между близнецами\[DC] Koi wa Futago de Warikirenai - 01_Telegram_HEVC.mkv':
  Metadata:
    COMPATIBLE_BRANDS: isomiso2avc1mp41
    MAJOR_BRAND     : isom
    MINOR_VERSION   : 512
    ENCODER         : Lavf61.7.100
  Duration: 00:23:46.73, start: -0.021000, bitrate: 928 kb/s
  Stream #0:0: Video: hevc (Main 10), yuv420p10le(tv, bt709, progressive), 1920x1080 [SAR 1:1 DAR 16:9], 23.98 fps, 23.98 tbr, 1k tbn (default)
      Metadata:
        HANDLER_NAME    : VideoHandler
        VENDOR_ID       : [0][0][0][0]
        ENCODER         : Lavc61.19.100 libx265
        BPS             : 731677
        DURATION        : 00:23:46.549708333
        NUMBER_OF_FRAMES: 34203
        NUMBER_OF_BYTES : 130471709
        _STATISTICS_WRITING_APP: mkvpropedit v66.0.0 ('Josie') 64-bit
        _STATISTICS_WRITING_DATE_UTC: 2025-05-07 14:33:19
        _STATISTICS_TAGS: BPS DURATION NUMBER_OF_FRAMES NUMBER_OF_BYTES
  Stream #0:1: Audio: aac (LC), 48000 Hz, stereo, fltp (default)
      Metadata:
        HANDLER_NAME    : SoundHandler
        VENDOR_ID       : [0][0][0][0]
        ENCODER         : Lavc61.19.100 aac
        BPS             : 193201
        DURATION        : 00:23:46.730000000
        NUMBER_OF_FRAMES: 66879
        NUMBER_OF_BYTES : 34455730
        _STATISTICS_WRITING_APP: mkvpropedit v66.0.0 ('Josie') 64-bit
        _STATISTICS_WRITING_DATE_UTC: 2025-05-07 14:33:19
        _STATISTICS_TAGS: BPS DURATION NUMBER_OF_FRAMES NUMBER_OF_BYTES
Input #1, mov,mp4,m4a,3gp,3g2,mj2, from 'G:\Аниме\Онгоинги\!_35_Лето_2024\DreamCast\Любовь неделима между близнецами\[DC] Koi wa Futago de Warikirenai - 01_Telegram.mp4':
  Metadata:
    major_brand     : isom
    minor_version   : 512
    compatible_brands: isomiso2avc1mp41
    encoder         : Lavf61.1.100
  Duration: 00:23:46.68, start: 0.000000, bitrate: 3819 kb/s
  Stream #1:0[0x1](und): Video: h264 (High) (avc1 / 0x31637661), yuv420p(tv, bt709, progressive), 1920x1080 [SAR 1:1 DAR 16:9], 3671 kb/s, 23.98 fps, 23.98 tbr, 24k tbn (default)
      Metadata:
        handler_name    : VideoHandler
        vendor_id       : [0][0][0][0]
        encoder         : Lavc61.3.100 h264_qsv
  Stream #1:1[0x2](und): Audio: aac (HE-AACv2) (mp4a / 0x6134706D), 48000 Hz, stereo, fltp, 144 kb/s (default)
      Metadata:
        handler_name    : SoundHandler
        vendor_id       : [0][0][0][0]
Stream mapping:
  Stream #0:0 (hevc) -> settb:default
  Stream #1:0 (h264) -> settb:default
  psnr:default -> Stream #0:0 (wrapped_avframe)
  Stream #0:1 -> #0:1 (aac (native) -> pcm_s16le (native))
Output #0, null, to 'pipe:':
  Metadata:
    COMPATIBLE_BRANDS: isomiso2avc1mp41
    MAJOR_BRAND     : isom
    MINOR_VERSION   : 512
    encoder         : Lavf61.7.100
  Stream #0:0: Video: wrapped_avframe, yuv420p10le(tv, bt709, progressive), 1920x1080 [SAR 1:1 DAR 16:9], q=2-31, 200 kb/s, 23.98 fps, 23.98 tbn
      Metadata:
        encoder         : Lavc61.19.100 wrapped_avframe
  Stream #0:1: Audio: pcm_s16le, 48000 Hz, stereo, s16, 1536 kb/s (default)
      Metadata:
        HANDLER_NAME    : SoundHandler
        VENDOR_ID       : [0][0][0][0]
        _STATISTICS_TAGS: BPS DURATION NUMBER_OF_FRAMES NUMBER_OF_BYTES
        BPS             : 193201
        DURATION        : 00:23:46.730000000
        NUMBER_OF_FRAMES: 66879
        NUMBER_OF_BYTES : 34455730
        _STATISTICS_WRITING_APP: mkvpropedit v66.0.0 ('Josie') 64-bit
        _STATISTICS_WRITING_DATE_UTC: 2025-05-07 14:33:19
        encoder         : Lavc61.19.100 pcm_s16le
frame=  166 fps=0.0 q=-0.0 size=N/A time=00:00:06.92 bitrate=N/A speed=13.4x    frame=  388 fps=379 q=-0.0 size=N/A time=00:00:16.18 bitrate=N/A speed=15.8x    frame=  658 fps=425 q=-0.0 size=N/A time=00:00:27.44 bitrate=N/A speed=17.7x    frame=  854 fps=415 q=-0.0 size=N/A time=00:00:35.61 bitrate=N/A speed=17.3x    frame= 1058 fps=410 q=-0.0 size=N/A time=00:00:44.12 bitrate=N/A speed=17.1x    frame= 1274 fps=413 q=-0.0 size=N/A time=00:00:53.13 bitrate=N/A speed=17.2x    frame= 1479 fps=410 q=-0.0 size=N/A time=00:01:01.68 bitrate=N/A speed=17.1x    frame= 1682 fps=408 q=-0.0 size=N/A time=00:01:10.15 bitrate=N/A speed=  17x    frame= 1871 fps=403 q=-0.0 size=N/A time=00:01:18.03 bitrate=N/A speed=16.8x    frame= 2087 fps=405 q=-0.0 size=N/A time=00:01:27.04 bitrate=N/A speed=16.9x    frame= 2289 fps=403 q=-0.0 size=N/A time=00:01:35.47 bitrate=N/A speed=16.8x    frame= 2497 fps=403 q=-0.0 size=N/A time=00:01:44.14 bitrate=N/A speed=16.8x    frame= 2706 fps=404 q=-0.0 size=N/A time=00:01:52.86 bitrate=N/A speed=16.8x    frame= 2974 fps=412 q=-0.0 size=N/A time=00:02:04.04 bitrate=N/A speed=17.2x    frame= 3205 fps=415 q=-0.0 size=N/A time=00:02:13.67 bitrate=N/A speed=17.3x    frame= 3456 fps=419 q=-0.0 size=N/A time=00:02:24.14 bitrate=N/A speed=17.5x    frame= 3693 fps=422 q=-0.0 size=N/A time=00:02:34.02 bitrate=N/A speed=17.6x    frame= 3942 fps=425 q=-0.0 size=N/A time=00:02:44.41 bitrate=N/A speed=17.7x    frame= 4188 fps=428 q=-0.0 size=N/A time=00:02:54.67 bitrate=N/A speed=17.8x    frame= 4432 fps=430 q=-0.0 size=N/A time=00:03:04.85 bitrate=N/A speed=17.9x    frame= 4679 fps=433 q=-0.0 size=N/A time=00:03:15.19 bitrate=N/A speed=  18x    frame= 4938 fps=435 q=-0.0 size=N/A time=00:03:25.95 bitrate=N/A speed=18.2x    frame= 5188 fps=438 q=-0.0 size=N/A time=00:03:36.38 bitrate=N/A speed=18.3x    frame= 5458 fps=441 q=-0.0 size=N/A time=00:03:47.64 bitrate=N/A speed=18.4x    frame= 5716 fps=443 q=-0.0 size=N/A time=00:03:58.40 bitrate=N/A speed=18.5x    frame= 5974 fps=446 q=-0.0 size=N/A time=00:04:09.16 bitrate=N/A speed=18.6x    frame= 6236 fps=448 q=-0.0 size=N/A time=00:04:20.09 bitrate=N/A speed=18.7x    frame= 6493 fps=450 q=-0.0 size=N/A time=00:04:30.81 bitrate=N/A speed=18.8x    frame= 6756 fps=452 q=-0.0 size=N/A time=00:04:41.78 bitrate=N/A speed=18.9x    frame= 7014 fps=453 q=-0.0 size=N/A time=00:04:52.54 bitrate=N/A speed=18.9x    frame= 7231 fps=453 q=-0.0 size=N/A time=00:05:01.59 bitrate=N/A speed=18.9x    frame= 7458 fps=452 q=-0.0 size=N/A time=00:05:11.06 bitrate=N/A speed=18.9x    frame= 7679 fps=452 q=-0.0 size=N/A time=00:05:20.27 bitrate=N/A speed=18.8x    frame= 7923 fps=452 q=-0.0 size=N/A time=00:05:30.45 bitrate=N/A speed=18.9x    frame= 8163 fps=453 q=-0.0 size=N/A time=00:05:40.46 bitrate=N/A speed=18.9x    frame= 8418 fps=454 q=-0.0 size=N/A time=00:05:51.10 bitrate=N/A speed=18.9x    frame= 8677 fps=455 q=-0.0 size=N/A time=00:06:01.90 bitrate=N/A speed=  19x    frame= 8930 fps=456 q=-0.0 size=N/A time=00:06:12.45 bitrate=N/A speed=  19x    frame= 9174 fps=456 q=-0.0 size=N/A time=00:06:22.63 bitrate=N/A speed=  19x    frame= 9443 fps=458 q=-0.0 size=N/A time=00:06:33.85 bitrate=N/A speed=19.1x    frame= 9682 fps=458 q=-0.0 size=N/A time=00:06:43.82 bitrate=N/A speed=19.1x    frame= 9935 fps=459 q=-0.0 size=N/A time=00:06:54.37 bitrate=N/A speed=19.1x    frame=10193 fps=460 q=-0.0 size=N/A time=00:07:05.13 bitrate=N/A speed=19.2x    frame=10446 fps=461 q=-0.0 size=N/A time=00:07:15.68 bitrate=N/A speed=19.2x    frame=10707 fps=461 q=-0.0 size=N/A time=00:07:26.57 bitrate=N/A speed=19.2x    frame=10960 fps=462 q=-0.0 size=N/A time=00:07:37.12 bitrate=N/A speed=19.3x    frame=11195 fps=462 q=-0.0 size=N/A time=00:07:46.92 bitrate=N/A speed=19.3x    frame=11460 fps=463 q=-0.0 size=N/A time=00:07:57.97 bitrate=N/A speed=19.3x    frame=11716 fps=464 q=-0.0 size=N/A time=00:08:08.65 bitrate=N/A speed=19.3x    frame=11993 fps=465 q=-0.0 size=N/A time=00:08:20.20 bitrate=N/A speed=19.4x    frame=12222 fps=465 q=-0.0 size=N/A time=00:08:29.75 bitrate=N/A speed=19.4x    frame=12464 fps=465 q=-0.0 size=N/A time=00:08:39.85 bitrate=N/A speed=19.4x    frame=12713 fps=465 q=-0.0 size=N/A time=00:08:50.23 bitrate=N/A speed=19.4x    frame=12970 fps=466 q=-0.0 size=N/A time=00:09:00.95 bitrate=N/A speed=19.4x    frame=13234 fps=467 q=-0.0 size=N/A time=00:09:12.00 bitrate=N/A speed=19.5x    frame=13471 fps=467 q=-0.0 size=N/A time=00:09:21.85 bitrate=N/A speed=19.5x    frame=13701 fps=466 q=-0.0 size=N/A time=00:09:31.44 bitrate=N/A speed=19.4x    frame=13941 fps=466 q=-0.0 size=N/A time=00:09:41.45 bitrate=N/A speed=19.4x    frame=14204 fps=467 q=-0.0 size=N/A time=00:09:52.42 bitrate=N/A speed=19.5x    frame=14446 fps=467 q=-0.0 size=N/A time=00:10:02.51 bitrate=N/A speed=19.5x    frame=14693 fps=467 q=-0.0 size=N/A time=00:10:12.82 bitrate=N/A speed=19.5x    frame=14949 fps=468 q=-0.0 size=N/A time=00:10:23.49 bitrate=N/A speed=19.5x    frame=15220 fps=469 q=-0.0 size=N/A time=00:10:34.80 bitrate=N/A speed=19.5x    frame=15492 fps=469 q=-0.0 size=N/A time=00:10:46.14 bitrate=N/A speed=19.6x    frame=15757 fps=470 q=-0.0 size=N/A time=00:10:57.19 bitrate=N/A speed=19.6x    frame=16012 fps=471 q=-0.0 size=N/A time=00:11:07.83 bitrate=N/A speed=19.6x    frame=16259 fps=471 q=-0.0 size=N/A time=00:11:18.13 bitrate=N/A speed=19.6x    frame=16515 fps=471 q=-0.0 size=N/A time=00:11:28.81 bitrate=N/A speed=19.6x    frame=16762 fps=471 q=-0.0 size=N/A time=00:11:39.11 bitrate=N/A speed=19.6x    frame=16980 fps=470 q=-0.0 size=N/A time=00:11:48.20 bitrate=N/A speed=19.6x    frame=17190 fps=469 q=-0.0 size=N/A time=00:11:56.96 bitrate=N/A speed=19.6x    frame=17432 fps=469 q=-0.0 size=N/A time=00:12:07.05 bitrate=N/A speed=19.6x    frame=17661 fps=469 q=-0.0 size=N/A time=00:12:16.61 bitrate=N/A speed=19.6x    frame=17886 fps=469 q=-0.0 size=N/A time=00:12:25.99 bitrate=N/A speed=19.5x    frame=18147 fps=469 q=-0.0 size=N/A time=00:12:36.88 bitrate=N/A speed=19.6x    frame=18410 fps=470 q=-0.0 size=N/A time=00:12:47.85 bitrate=N/A speed=19.6x    frame=18671 fps=470 q=-0.0 size=N/A time=00:12:58.73 bitrate=N/A speed=19.6x    frame=18926 fps=470 q=-0.0 size=N/A time=00:13:09.37 bitrate=N/A speed=19.6x    frame=19192 fps=471 q=-0.0 size=N/A time=00:13:20.46 bitrate=N/A speed=19.6x    frame=19444 fps=471 q=-0.0 size=N/A time=00:13:30.97 bitrate=N/A speed=19.6x    frame=19704 fps=471 q=-0.0 size=N/A time=00:13:41.82 bitrate=N/A speed=19.7x    frame=19972 fps=472 q=-0.0 size=N/A time=00:13:52.99 bitrate=N/A speed=19.7x    frame=20234 fps=472 q=-0.0 size=N/A time=00:14:03.92 bitrate=N/A speed=19.7x    frame=20485 fps=473 q=-0.0 size=N/A time=00:14:14.39 bitrate=N/A speed=19.7x    frame=20734 fps=473 q=-0.0 size=N/A time=00:14:24.78 bitrate=N/A speed=19.7x    frame=20960 fps=472 q=-0.0 size=N/A time=00:14:34.20 bitrate=N/A speed=19.7x    frame=21207 fps=472 q=-0.0 size=N/A time=00:14:44.50 bitrate=N/A speed=19.7x    frame=21453 fps=472 q=-0.0 size=N/A time=00:14:54.76 bitrate=N/A speed=19.7x    frame=21720 fps=473 q=-0.0 size=N/A time=00:15:05.90 bitrate=N/A speed=19.7x    frame=21965 fps=473 q=-0.0 size=N/A time=00:15:16.12 bitrate=N/A speed=19.7x    frame=22218 fps=473 q=-0.0 size=N/A time=00:15:26.67 bitrate=N/A speed=19.7x    frame=22423 fps=472 q=-0.0 size=N/A time=00:15:35.22 bitrate=N/A speed=19.7x    frame=22682 fps=473 q=-0.0 size=N/A time=00:15:46.02 bitrate=N/A speed=19.7x    frame=22926 fps=473 q=-0.0 size=N/A time=00:15:56.20 bitrate=N/A speed=19.7x    frame=23176 fps=473 q=-0.0 size=N/A time=00:16:06.63 bitrate=N/A speed=19.7x    frame=23440 fps=473 q=-0.0 size=N/A time=00:16:17.64 bitrate=N/A speed=19.7x    frame=23695 fps=473 q=-0.0 size=N/A time=00:16:28.27 bitrate=N/A speed=19.7x    frame=23937 fps=474 q=-0.0 size=N/A time=00:16:38.37 bitrate=N/A speed=19.8x    frame=24187 fps=474 q=-0.0 size=N/A time=00:16:48.79 bitrate=N/A speed=19.8x    frame=24458 fps=474 q=-0.0 size=N/A time=00:17:00.10 bitrate=N/A speed=19.8x    frame=24722 fps=474 q=-0.0 size=N/A time=00:17:11.11 bitrate=N/A speed=19.8x    frame=24970 fps=475 q=-0.0 size=N/A time=00:17:21.45 bitrate=N/A speed=19.8x    frame=25239 fps=475 q=-0.0 size=N/A time=00:17:32.67 bitrate=N/A speed=19.8x    frame=25498 fps=475 q=-0.0 size=N/A time=00:17:43.47 bitrate=N/A speed=19.8x    frame=25759 fps=476 q=-0.0 size=N/A time=00:17:54.36 bitrate=N/A speed=19.8x    frame=26012 fps=476 q=-0.0 size=N/A time=00:18:04.91 bitrate=N/A speed=19.8x    frame=26273 fps=476 q=-0.0 size=N/A time=00:18:15.80 bitrate=N/A speed=19.9x    frame=26517 fps=476 q=-0.0 size=N/A time=00:18:25.97 bitrate=N/A speed=19.9x    frame=26726 fps=475 q=-0.0 size=N/A time=00:18:34.69 bitrate=N/A speed=19.8x    frame=26967 fps=475 q=-0.0 size=N/A time=00:18:44.74 bitrate=N/A speed=19.8x    frame=27222 fps=475 q=-0.0 size=N/A time=00:18:55.38 bitrate=N/A speed=19.8x    frame=27495 fps=476 q=-0.0 size=N/A time=00:19:06.77 bitrate=N/A speed=19.8x    frame=27748 fps=476 q=-0.0 size=N/A time=00:19:17.32 bitrate=N/A speed=19.9x    frame=28007 fps=476 q=-0.0 size=N/A time=00:19:28.12 bitrate=N/A speed=19.9x    frame=28260 fps=476 q=-0.0 size=N/A time=00:19:38.67 bitrate=N/A speed=19.9x    frame=28530 fps=477 q=-0.0 size=N/A time=00:19:49.93 bitrate=N/A speed=19.9x    frame=28802 fps=477 q=-0.0 size=N/A time=00:20:01.28 bitrate=N/A speed=19.9x    frame=29072 fps=478 q=-0.0 size=N/A time=00:20:12.54 bitrate=N/A speed=19.9x    frame=29342 fps=478 q=-0.0 size=N/A time=00:20:23.80 bitrate=N/A speed=19.9x    frame=29607 fps=478 q=-0.0 size=N/A time=00:20:34.85 bitrate=N/A speed=19.9x    frame=29869 fps=478 q=-0.0 size=N/A time=00:20:45.78 bitrate=N/A speed=  20x    frame=30110 fps=478 q=-0.0 size=N/A time=00:20:55.83 bitrate=N/A speed=  20x    frame=30340 fps=478 q=-0.0 size=N/A time=00:21:05.43 bitrate=N/A speed=19.9x    frame=30582 fps=478 q=-0.0 size=N/A time=00:21:15.52 bitrate=N/A speed=19.9x    frame=30843 fps=478 q=-0.0 size=N/A time=00:21:26.41 bitrate=N/A speed=19.9x    frame=31087 fps=478 q=-0.0 size=N/A time=00:21:36.58 bitrate=N/A speed=19.9x    frame=31356 fps=478 q=-0.0 size=N/A time=00:21:47.80 bitrate=N/A speed=  20x    frame=31602 fps=479 q=-0.0 size=N/A time=00:21:58.06 bitrate=N/A speed=  20x    frame=31878 fps=479 q=-0.0 size=N/A time=00:22:09.57 bitrate=N/A speed=  20x    frame=32133 fps=479 q=-0.0 size=N/A time=00:22:20.21 bitrate=N/A speed=  20x    frame=32342 fps=479 q=-0.0 size=N/A time=00:22:28.93 bitrate=N/A speed=  20x    frame=32553 fps=478 q=-0.0 size=N/A time=00:22:37.73 bitrate=N/A speed=19.9x    frame=32788 fps=478 q=-0.0 size=N/A time=00:22:47.53 bitrate=N/A speed=19.9x    frame=32995 fps=477 q=-0.0 size=N/A time=00:22:56.16 bitrate=N/A speed=19.9x    frame=33203 fps=477 q=-0.0 size=N/A time=00:23:04.84 bitrate=N/A speed=19.9x    frame=33417 fps=476 q=-0.0 size=N/A time=00:23:13.76 bitrate=N/A speed=19.9x    frame=33625 fps=476 q=-0.0 size=N/A time=00:23:22.44 bitrate=N/A speed=19.8x    frame=33827 fps=475 q=-0.0 size=N/A time=00:23:30.86 bitrate=N/A speed=19.8x    frame=34029 fps=474 q=-0.0 size=N/A time=00:23:39.29 bitrate=N/A speed=19.8x    [Parsed_psnr_10 @ 0000028465d30f00] PSNR y:48.869005 u:49.348616 v:48.951483 average:48.959232 min:42.604179 max:inf
[out#0/null @ 0000028458be6e00] video:14697KiB audio:267516KiB subtitle:0KiB other streams:0KiB global headers:0KiB muxing overhead: unknown
frame=34203 fps=474 q=-0.0 Lsize=N/A time=00:23:46.55 bitrate=N/A speed=19.8x    
